<svg xmlns="http://www.w3.org/2000/svg" viewBox="0 0 292.13 70.46"><defs><style>.cls-1{fill:#fff;}</style></defs><title>アセット 6</title><g id="レイヤー_2" data-name="レイヤー 2"><g id="レイヤー_1-2" data-name="レイヤー 1"><path class="cls-1" d="M71.1,30.16v-.9a4.5,4.5,0,1,0-9,0v18a4.5,4.5,0,1,0,9,0v-.9h4.5v.9a3.16,3.16,0,0,1-.09.9,8.89,8.89,0,0,1-2.88,5.76,8.55,8.55,0,0,1-6,2.34,8.91,8.91,0,0,1-9-9v-18a8.91,8.91,0,0,1,9-9,8.55,8.55,0,0,1,6,2.34,8.89,8.89,0,0,1,2.88,5.76,3.16,3.16,0,0,1,.09.9v.9H71.1Z"/><path class="cls-1" d="M96.3,20.26h4.5v36H96.3V40.06h-9v16.2H82.8v-36h4.5v15.3h9Z"/><path class="cls-1" d="M114,20.26h7.56l7.83,36h-4.59l-3-13.5h-8.1l-3,13.5H106.2Zm.72,18h6.12l-3-13.5h-.27Z"/><path class="cls-1" d="M134.82,20.26h4.5v36h-4.5Z"/><path class="cls-1" d="M161.82,20.26h4.5v36h-4.5l-.72-1.8-.27-.9-8-21.33v24h-4.5v-36h4.5l9,24Z"/><path class="cls-1" d="M187.92,24.76a4.46,4.46,0,0,0-4.5,4.5v1.8a4.44,4.44,0,0,0,4.5,4.5,8.91,8.91,0,0,1,9,9v2.7a9,9,0,0,1-17.82,1.8,1,1,0,0,1-.09-.45,1,1,0,0,0-.09-.45v-.9h4.5a4.5,4.5,0,1,0,9,0v-2.7a4.47,4.47,0,0,0-4.5-4.5,8.91,8.91,0,0,1-9-9v-1.8a9,9,0,0,1,17.82-1.8,3.16,3.16,0,0,1,.09.9,3.16,3.16,0,0,1,.09.9h-4.5a4.47,4.47,0,0,0-4.5-4.5Z"/><path class="cls-1" d="M215.82,30.16v-.9a4.5,4.5,0,1,0-9,0v18a4.5,4.5,0,1,0,9,0v-.9h4.5v.9a3.16,3.16,0,0,1-.09.9,8.89,8.89,0,0,1-2.88,5.76,8.55,8.55,0,0,1-6,2.34,8.91,8.91,0,0,1-9-9v-18a8.91,8.91,0,0,1,9-9,8.55,8.55,0,0,1,6,2.34,8.89,8.89,0,0,1,2.88,5.76,3.16,3.16,0,0,1,.09.9v.9h-4.5Z"/><path class="cls-1" d="M231.75,20.26h7.56l7.83,36h-4.59l-3-13.5h-8.1l-3,13.5h-4.59Zm.72,18h6.12l-3-13.5h-.27Z"/><path class="cls-1" d="M261.53,20.26a8.91,8.91,0,0,1,9,9v1.8a8.91,8.91,0,0,1-9,9H257v16.2h-4.5v-36Zm0,15.3a4.44,4.44,0,0,0,4.5-4.5v-1.8a4.46,4.46,0,0,0-4.5-4.5H257v10.8Z"/><path class="cls-1" d="M274.13,20.26h18v4.5h-13.5v10.8h9v4.5h-9v11.7h13.5v4.5h-18Z"/><path class="cls-1" d="M21.91,5.84a6.26,6.26,0,0,1-2.29,4.5l-9.33,6.79A6.3,6.3,0,0,0,8,21.63V44.92c0,1.56,1,2.09,2.29,1.17l9.33-6.79c1.26-.92,2.29-.39,2.29,1.17v4.22a6.26,6.26,0,0,1-2.29,4.5L2.29,61.8C1,62.72,0,62.19,0,60.64V17.56a6.28,6.28,0,0,1,2.29-4.5L19.62.45c1.26-.92,2.29-.39,2.29,1.17Z"/><path class="cls-1" d="M15.74,64.62A6.26,6.26,0,0,1,18,60.12l9.33-6.79a6.29,6.29,0,0,0,2.3-4.5V25.54c0-1.56-1-2.08-2.3-1.17L18,31.16c-1.26.92-2.29.39-2.29-1.17V25.77A6.26,6.26,0,0,1,18,21.27L35.36,8.66c1.26-.92,2.3-.39,2.3,1.17V52.9a6.29,6.29,0,0,1-2.3,4.5L18,70c-1.26.92-2.29.39-2.29-1.17Z"/></g></g></svg>